<?xml version="1.0" encoding="UTF-8"?>
<svg version="1.1" xmlns="http://www.w3.org/2000/svg" width="485" height="434">
<path d="M0 0 C160.05 0 320.1 0 485 0 C485 143.22 485 286.44 485 434 C324.95 434 164.9 434 0 434 C0 290.78 0 147.56 0 0 Z " fill="#FEFEFE" transform="translate(0,0)"/>
<path d="M0 0 C0.77021484 0.19835449 1.54042969 0.39670898 2.33398438 0.60107422 C24.85413511 6.67571574 44.19337849 19.08902917 61 35 C61.88429688 35.81984375 62.76859375 36.6396875 63.6796875 37.484375 C87.06799479 59.87884487 102.85272254 92.67896104 104.1262207 125.22583008 C104.94437748 162.96753207 97.67315143 198.71091174 72 228 C71.5580127 228.51062988 71.11602539 229.02125977 70.66064453 229.54736328 C46.35325821 257.49611169 13.03955787 275.28551985 -24 279 C-61.44612233 281.50309883 -99.25254085 271.32192208 -128.08984375 246.66015625 C-139.00694374 236.68090109 -149.14465574 226.59871095 -157 214 C-157.58104492 213.0728418 -157.58104492 213.0728418 -158.17382812 212.12695312 C-176.94327009 181.66912721 -184.86009951 142.95158729 -176.83618164 107.76196289 C-176.26608495 105.49384922 -175.6467489 103.24737859 -175 101 C-174.78569336 100.2359082 -174.57138672 99.47181641 -174.35058594 98.68457031 C-163.66595564 61.52942945 -138.68608024 31.11924444 -105.1953125 12.25390625 C-73.32055524 -5.16466839 -35.0727585 -9.10787736 0 0 Z " fill="#FCFCFC" transform="translate(278,70)"/>
<path d="M0 0 C7.32816549 -0.10213068 14.65614477 -0.17177002 21.98486328 -0.21972656 C24.47353982 -0.23973667 26.96216998 -0.26695343 29.45068359 -0.30175781 C33.04536444 -0.35074344 36.63941913 -0.37307583 40.234375 -0.390625 C41.88043732 -0.42159271 41.88043732 -0.42159271 43.55975342 -0.45318604 C51.35645781 -0.45540787 57.76152678 1.13526586 65 4 C65.33 2.68 65.66 1.36 66 0 C67.32 0 68.64 0 70 0 C70.020625 1.19625 70.04125 2.3925 70.0625 3.625 C70.50378508 7.31751781 71.40453311 8.76967995 74.3125 11.0625 C74.90675781 11.46597656 75.50101562 11.86945313 76.11328125 12.28515625 C78 14 78 14 82 21 C82.33 14.4 82.66 7.8 83 1 C83.99 1 84.98 1 86 1 C86.16997131 6.83067119 86.33023011 12.66150701 86.48217773 18.49267578 C86.53496268 20.46898262 86.59022639 22.44522509 86.64819336 24.42138672 C86.73191444 27.29119966 86.80617946 30.16113966 86.87890625 33.03125 C86.90594131 33.88924194 86.93297638 34.74723389 86.96083069 35.63122559 C87.15333448 43.86620111 86.52068972 51.66896441 86 60 C102.17 60 118.34 60 135 60 C135 40.53 135 21.06 135 1 C135.99 1 136.98 1 138 1 C138 46.54 138 92.08 138 139 C137.01 139 136.02 139 135 139 C135 119.53 135 100.06 135 80 C118.83 80 102.66 80 86 80 C86.495 91.385 86.495 91.385 87 103 C86.92235579 109.48955322 86.80177389 115.95529096 86.5625 122.4375 C86.50896872 124.06703131 86.45623383 125.69658897 86.40429688 127.32617188 C86.27860537 131.21781009 86.14250944 135.1089429 86 139 C84.68 139 83.36 139 82 139 C81.505 130.09 81.505 130.09 81 121 C79.55625 122.65 78.1125 124.3 76.625 126 C75.12996047 127.7086166 73.59671399 129.38599308 72 131 C71.34 131 70.68 131 70 131 C70 133.64 70 136.28 70 139 C68.68 139 67.36 139 66 139 C66 137.68 66 136.36 66 135 C64.11197917 135.74869792 62.22395833 136.49739583 60.3359375 137.24609375 C54.80388853 139.03152093 49.30257986 139.13714944 43.5390625 139.09765625 C42.83740967 139.09664917 42.13575684 139.09564209 41.4128418 139.09460449 C38.81687767 139.089412 36.22093702 139.07545103 33.625 139.0625 C27.80875 139.041875 21.9925 139.02125 16 139 C16 119.53 16 100.06 16 80 C12.04 80 8.08 80 4 80 C4 99.47 4 118.94 4 139 C2.68 139 1.36 139 0 139 C0 98.74 0 58.48 0 17 C56.515625 17 56.515625 17 63.2421875 23 C63.78101563 23.66 64.31984375 24.32 64.875 25 C65.42929688 25.66 65.98359375 26.32 66.5546875 27 C70.89074683 33.00016859 70.70188001 38.75590505 70 46 C68.36575753 51.54759067 65.2338831 55.10940472 61 59 C60.505 59.99 60.505 59.99 60 61 C63.6125362 62.84827434 67.2089881 64.55049545 71 66 C78.31684135 58.68315865 82.17585301 49.83026236 82.625 39.4375 C82.15884859 29.2680389 78.05583794 21.08693523 71.02734375 13.8359375 C62.08747162 5.74009954 50.40531495 4.55850468 38.76953125 4.48828125 C37.65309738 4.47033005 36.53666351 4.45237885 35.38639832 4.43388367 C31.86180263 4.38021229 28.33733894 4.34602396 24.8125 4.3125 C22.40558076 4.27928882 19.99867884 4.24479572 17.59179688 4.20898438 C11.72798313 4.12451114 5.86415134 4.05598086 0 4 C0 2.68 0 1.36 0 0 Z " fill="#141414" transform="translate(163,109)"/>
<path d="M0 0 C0.77021484 0.19835449 1.54042969 0.39670898 2.33398438 0.60107422 C24.85413511 6.67571574 44.19337849 19.08902917 61 35 C61.88429688 35.81984375 62.76859375 36.6396875 63.6796875 37.484375 C87.06799479 59.87884487 102.85272254 92.67896104 104.1262207 125.22583008 C104.94437748 162.96753207 97.67315143 198.71091174 72 228 C71.5580127 228.51062988 71.11602539 229.02125977 70.66064453 229.54736328 C46.35325821 257.49611169 13.03955787 275.28551985 -24 279 C-61.44612233 281.50309883 -99.25254085 271.32192208 -128.08984375 246.66015625 C-139.00694374 236.68090109 -149.14465574 226.59871095 -157 214 C-157.58104492 213.0728418 -157.58104492 213.0728418 -158.17382812 212.12695312 C-176.94327009 181.66912721 -184.86009951 142.95158729 -176.83618164 107.76196289 C-176.26608495 105.49384922 -175.6467489 103.24737859 -175 101 C-174.78569336 100.2359082 -174.57138672 99.47181641 -174.35058594 98.68457031 C-163.66595564 61.52942945 -138.68608024 31.11924444 -105.1953125 12.25390625 C-73.32055524 -5.16466839 -35.0727585 -9.10787736 0 0 Z M-123 31 C-123.98742187 31.85078125 -124.97484375 32.7015625 -125.9921875 33.578125 C-137.58219261 43.78942085 -147.18208703 54.65993915 -155 68 C-155.34659668 68.57556641 -155.69319336 69.15113281 -156.05029297 69.74414062 C-172.77439924 97.74071872 -178.06317018 134.10573087 -171.09375 165.984375 C-170.73915822 167.32559812 -170.37382625 168.6640102 -170 170 C-169.66935547 171.19979492 -169.66935547 171.19979492 -169.33203125 172.42382812 C-164.30851717 190.05928628 -156.64192177 206.72453758 -145 221 C-144.56993652 221.53931152 -144.13987305 222.07862305 -143.69677734 222.63427734 C-122.33928919 249.29585126 -91.22889901 267.83581493 -57.171875 272.52734375 C-20.29664775 276.45176279 16.75661354 268.56023617 46.30761719 245.37695312 C74.79004408 222.20313782 94.47873218 189.87311333 98.6015625 152.9921875 C101.87357875 116.33106319 92.652541 80.93540304 69.375 52.125 C67.92232855 50.41184953 66.46444589 48.70309633 65 47 C64.42765625 46.29359375 63.8553125 45.5871875 63.265625 44.859375 C58.49449583 39.08858068 52.88947653 34.58940591 47 30 C45.6078125 28.86691406 45.6078125 28.86691406 44.1875 27.7109375 C36.32996984 21.49751012 28.05041243 17.15611649 19 13 C18.00355469 12.52691406 17.00710938 12.05382812 15.98046875 11.56640625 C-28.53205488 -8.41753793 -85.97912222 -1.04792405 -123 31 Z " fill="#090909" transform="translate(278,70)"/>
<path d="M0 0 C6.82763147 -0.19990813 13.65350743 -0.34393017 20.48339844 -0.43945312 C22.79945603 -0.47932971 25.11531697 -0.53365317 27.43066406 -0.60351562 C41.78223154 -1.02525572 54.13801868 -0.95260162 66 8 C66.495 9.485 66.495 9.485 67 11 C67.66 11 68.32 11 69 11 C69 11.66 69 12.32 69 13 C69.99 13.33 70.98 13.66 72 14 C73.5703125 16.58203125 73.5703125 16.58203125 75.125 19.8125 C75.64320313 20.87082031 76.16140625 21.92914063 76.6953125 23.01953125 C80.18514388 30.99181072 80.40081326 40.29481004 77.25 48.4375 C72.12983122 59.49849178 65.16813018 66.27502185 54 71 C50.30459598 72.23180134 46.89696622 72.12412112 43.05078125 72.09765625 C42.27816452 72.0962413 41.50554779 72.09482635 40.70951843 72.09336853 C38.24380611 72.08777466 35.77818485 72.07522333 33.3125 72.0625 C31.63997527 72.05748421 29.96744912 72.05292144 28.29492188 72.04882812 C24.19657954 72.03780724 20.09830521 72.02054684 16 72 C16 68.04 16 64.08 16 60 C16.87624023 60.00112793 17.75248047 60.00225586 18.65527344 60.00341797 C21.96631343 59.99337922 25.27494303 59.95642962 28.58544922 59.90234375 C30.006905 59.88438717 31.4285323 59.87657762 32.85009766 59.87988281 C42.56376714 59.893593 50.83718836 58.85646133 59 53 C61.12909677 50.47190803 62.6625054 48.01445482 64 45 C64.495 44.01 64.495 44.01 65 43 C65.66336075 35.32241494 65.87456105 28.29391854 61 22 C56.33350297 16.83682135 51.52203767 14.39404621 44.55793762 13.78720093 C41.71615652 13.67420538 38.87898887 13.61905417 36.03515625 13.5859375 C34.48519203 13.55688828 34.48519203 13.55688828 32.90391541 13.5272522 C29.62352595 13.46776701 26.34310082 13.42119548 23.0625 13.375 C20.83006334 13.33679164 18.59764098 13.29773826 16.36523438 13.2578125 C10.91027317 13.16209101 5.45524299 13.07794562 0 13 C0 8.71 0 4.42 0 0 Z " fill="#F7F7F7" transform="translate(167,172)"/>
<path d="M0 0 C4.57875 -0.0825 9.1575 -0.165 13.875 -0.25 C15.29796387 -0.28641602 16.72092773 -0.32283203 18.18701172 -0.36035156 C26.24238348 -0.43017304 34.30432296 -0.14628702 40.64013672 5.44824219 C45.55413448 11.05566944 46.52216177 15.6613344 46.37109375 22.95703125 C45.80579288 27.59249836 44.23924778 30.6602505 41 34 C35.32748551 38.3384432 31.17939576 40.12674551 24.0234375 40.09765625 C22.76966309 40.09515869 21.51588867 40.09266113 20.22412109 40.09008789 C18.62391113 40.08098389 17.02370117 40.07187988 15.375 40.0625 C10.30125 40.041875 5.2275 40.02125 0 40 C0 26.8 0 13.6 0 0 Z " fill="#F7F7F7" transform="translate(183,129)"/>
<path d="M0 0 C56.515625 0 56.515625 0 63.2421875 6 C63.78101563 6.66 64.31984375 7.32 64.875 8 C65.42929688 8.66 65.98359375 9.32 66.5546875 10 C70.89074683 16.00016859 70.70188001 21.75590505 70 29 C68.34378473 34.62217939 65.16081446 37.95476372 61 42 C61 42.99 61 43.98 61 45 C60.67 45.99 60.34 46.98 60 48 C59.2476709 47.84152588 58.4953418 47.68305176 57.72021484 47.51977539 C52.63761712 46.80965264 47.60311691 46.76421462 42.4765625 46.68359375 C41.37524994 46.66281265 40.27393738 46.64203156 39.13925171 46.62062073 C35.63456227 46.5554381 32.12980034 46.49638603 28.625 46.4375 C26.2434822 46.39428502 23.86197163 46.35066978 21.48046875 46.30664062 C15.65371939 46.19978884 9.8268974 46.09843374 4 46 C4 50.62 4 55.24 4 60 C4.99 60.33 5.98 60.66 7 61 C5.515 61.495 5.515 61.495 4 62 C4 81.8 4 101.6 4 122 C2.68 122 1.36 122 0 122 C0 81.74 0 41.48 0 0 Z M20 3 C20 16.2 20 29.4 20 43 C24.929375 43.103125 29.85875 43.20625 34.9375 43.3125 C37.2422229 43.38078003 37.2422229 43.38078003 39.59350586 43.45043945 C47.43753283 43.52967205 53.66721404 43.14079859 60 38 C65.37642305 32.34786295 66.53011629 27.72282203 66.37109375 20.04296875 C65.69357584 14.48732192 63.38312634 10.88762483 59.02734375 7.4375 C53.35694946 3.70669852 49.0675494 2.87251075 42.265625 2.90234375 C41.09805664 2.90484131 39.93048828 2.90733887 38.72753906 2.90991211 C37.24995117 2.91901611 35.77236328 2.92812012 34.25 2.9375 C27.19625 2.9684375 27.19625 2.9684375 20 3 Z " fill="#161616" transform="translate(163,126)"/>
<path d="M0 0 C5.32125 -0.0825 10.6425 -0.165 16.125 -0.25 C17.79320801 -0.28641602 19.46141602 -0.32283203 21.18017578 -0.36035156 C22.51854164 -0.37204587 23.85692184 -0.38223594 25.1953125 -0.390625 C25.877146 -0.41108887 26.55897949 -0.43155273 27.26147461 -0.45263672 C33.22552031 -0.45694444 36.71794546 1.73229801 40.86328125 5.8515625 C41.34152344 6.43679687 41.81976563 7.02203125 42.3125 7.625 C43.04919922 8.51058594 43.04919922 8.51058594 43.80078125 9.4140625 C47.23695361 13.9583165 46.6068147 19.55912215 46 25 C43.68383076 30.97783099 39.53763941 35.24981184 33.7980957 38.08935547 C30.32193214 39.22067822 27.38486504 39.22538984 23.73046875 39.1953125 C22.48418701 39.19031738 21.23790527 39.18532227 19.95385742 39.18017578 C17.5945105 39.15286377 17.5945105 39.15286377 15.1875 39.125 C7.6696875 39.063125 7.6696875 39.063125 0 39 C0 26.13 0 13.26 0 0 Z " fill="#FAFAFA" transform="translate(183,189)"/>
<path d="M0 0 C7.32816549 -0.10213068 14.65614477 -0.17177002 21.98486328 -0.21972656 C24.47353982 -0.23973667 26.96216998 -0.26695343 29.45068359 -0.30175781 C33.04536444 -0.35074344 36.63941913 -0.37307583 40.234375 -0.390625 C41.88043732 -0.42159271 41.88043732 -0.42159271 43.55975342 -0.45318604 C51.35645781 -0.45540787 57.76152678 1.13526586 65 4 C65.33 2.68 65.66 1.36 66 0 C67.32 0 68.64 0 70 0 C70.020625 1.19625 70.04125 2.3925 70.0625 3.625 C70.50378508 7.31751781 71.40453311 8.76967995 74.3125 11.0625 C74.90675781 11.46597656 75.50101562 11.86945313 76.11328125 12.28515625 C78 14 78 14 82 21 C82.33 14.4 82.66 7.8 83 1 C83.99 1 84.98 1 86 1 C86.16997131 6.83067119 86.33023011 12.66150701 86.48217773 18.49267578 C86.53496268 20.46898262 86.59022639 22.44522509 86.64819336 24.42138672 C86.73191444 27.29119966 86.80617946 30.16113966 86.87890625 33.03125 C86.90594131 33.88924194 86.93297638 34.74723389 86.96083069 35.63122559 C87.15333448 43.86620111 86.52068972 51.66896441 86 60 C102.17 60 118.34 60 135 60 C135 40.53 135 21.06 135 1 C135.99 1 136.98 1 138 1 C138 46.54 138 92.08 138 139 C137.01 139 136.02 139 135 139 C135 119.2 135 99.4 135 79 C133.68 78.67 132.36 78.34 131 78 C132.32 77.34 133.64 76.68 135 76 C135 71.71 135 67.42 135 63 C127.09756959 63.04407972 119.19594369 63.11383903 111.29394531 63.20751953 C108.6051281 63.23798196 105.91649902 63.25864566 103.22753906 63.27099609 C99.36479803 63.29237658 95.50306552 63.33900507 91.640625 63.390625 C90.4363385 63.39185364 89.232052 63.39308228 87.99127197 63.39434814 C86.87041199 63.41406677 85.749552 63.4337854 84.59472656 63.45410156 C83.11579926 63.46742523 83.11579926 63.46742523 81.60699463 63.48101807 C78.3122318 64.136916 77.29061761 65.63036767 75 68 C73.68 68 72.36 68 71 68 C72.39210264 65.03595372 74.03357647 62.47217943 75.9375 59.8125 C81.58276706 51.3238955 83.23897462 43.18580096 82 33 C79.47460579 23.47131352 74.1088566 14.99689653 65.6875 9.625 C57.03929798 5.503177 48.23306359 4.54539486 38.76953125 4.48828125 C37.65309738 4.47033005 36.53666351 4.45237885 35.38639832 4.43388367 C31.86180263 4.38021229 28.33733894 4.34602396 24.8125 4.3125 C22.40558076 4.27928882 19.99867884 4.24479572 17.59179688 4.20898438 C11.72798313 4.12451114 5.86415134 4.05598086 0 4 C0 2.68 0 1.36 0 0 Z " fill="#0B0B0B" transform="translate(163,109)"/>
<path d="M0 0 C3.125 -0.1875 3.125 -0.1875 6 0 C5.38722388 2.96175123 4.74627478 4.38058783 3 7 C3.20625 7.804375 3.4125 8.60875 3.625 9.4375 C4 12 4 12 2.625 14.3125 C-1.17947178 16.75823186 -4.59703436 16.33868966 -9 16 C-9 16.99 -9 17.98 -9 19 C-8.26394531 18.94199219 -7.52789062 18.88398438 -6.76953125 18.82421875 C1.10584892 18.46009946 1.10584892 18.46009946 3.84375 20.11328125 C5.1875 21.5 5.1875 21.5 7 24 C7 23.01 7 22.02 7 21 C7.68571429 16.31428571 7.68571429 16.31428571 10 14 C9.34 13.34 8.68 12.68 8 12 C7.75 9.5 7.75 9.5 8 7 C10.62451617 4.37548383 12.4877828 4.4167132 16.125 3.875 C17.22070312 3.70742188 18.31640625 3.53984375 19.4453125 3.3671875 C20.28835937 3.24601562 21.13140625 3.12484375 22 3 C22.33 2.01 22.66 1.02 23 0 C24.98 0 26.96 0 29 0 C28.25 4.75 28.25 4.75 26 7 C26.495 7.495 26.495 7.495 27 8 C27.3125 10.375 27.3125 10.375 27 13 C25.5625 14.8125 25.5625 14.8125 23 16 C19.98228984 16.2389237 17.01993159 16.17422682 14 16 C14 16.99 14 17.98 14 19 C15.12148437 18.94779297 15.12148437 18.94779297 16.265625 18.89453125 C17.74289063 18.85392578 17.74289063 18.85392578 19.25 18.8125 C20.22453125 18.77769531 21.1990625 18.74289062 22.203125 18.70703125 C25.42195203 19.04419889 26.72783195 19.72783195 29 22 C29.5625 25 29.5625 25 29 28 C24.95936638 31.26005667 21.52250118 31.40529792 16.4375 31.375 C15.13683594 31.38273437 13.83617187 31.39046875 12.49609375 31.3984375 C8.9300538 30.99202848 7.54276431 30.44571224 5 28 C4.37943726 28.73126099 4.37943726 28.73126099 3.74633789 29.47729492 C0.80724845 32.04000999 -2.85413907 31.38943695 -6.5625 31.3125 C-7.34302734 31.31572266 -8.12355469 31.31894531 -8.92773438 31.32226562 C-14.73283019 31.26716981 -14.73283019 31.26716981 -17 29 C-17.25 26.5 -17.25 26.5 -17 24 C-16.34 23.34 -15.68 22.68 -15 22 C-15.165 21.21625 -15.33 20.4325 -15.5 19.625 C-16.07870523 16.58679755 -15.61211949 15.56042508 -14 13 C-14.33 12.67 -14.66 12.34 -15 12 C-15.3125 9.625 -15.3125 9.625 -15 7 C-13.15544537 4.75445524 -11.66535104 4.08981648 -8.80078125 3.703125 C-7.21082596 3.56998865 -5.61769076 3.46980827 -4.0234375 3.40625 C-1.6016319 3.16791129 -1.6016319 3.16791129 0 0 Z " fill="#0A0709" transform="translate(231,257)"/>
<path d="M0 0 C18.48 0 36.96 0 56 0 C56 4.29 56 8.58 56 13 C48.75033016 13.04517794 41.50073721 13.08187405 34.25095654 13.10362434 C30.88461771 13.1140632 27.51838015 13.12822409 24.15209961 13.15087891 C20.28236185 13.17507811 16.41276824 13.18647192 12.54296875 13.1953125 C11.33352097 13.20563507 10.12407318 13.21595764 8.87797546 13.22659302 C7.19657219 13.22681961 7.19657219 13.22681961 5.48120117 13.22705078 C4.49302902 13.231492 3.50485687 13.23593323 2.48674011 13.24050903 C0 13 0 13 -3 11 C-4.25 8.5 -4.25 8.5 -5 6 C-4.67 5.34 -4.34 4.68 -4 4 C-3.34 4 -2.68 4 -2 4 C-1.34 2.68 -0.68 1.36 0 0 Z " fill="#F3F3F3" transform="translate(242,172)"/>
<path d="M0 0 C6.56531452 -0.05086217 13.13057788 -0.08580161 19.69604492 -0.10986328 C21.92783507 -0.11989816 24.15961215 -0.13352907 26.39135742 -0.15087891 C29.60598993 -0.17523761 32.82044803 -0.18650847 36.03515625 -0.1953125 C37.02709488 -0.20563507 38.01903351 -0.21595764 39.04103088 -0.22659302 C48.40762655 -0.22809755 54.12065596 1.27109001 61.04296875 7.875 C66.22427328 13.50100731 66.59586453 19.40803439 66.41796875 26.76953125 C65.63434471 32.82613946 62.9460672 36.99987538 58.75 41.3125 C57.8425 41.869375 56.935 42.42625 56 43 C55.44803955 43.34023193 54.8960791 43.68046387 54.32739258 44.03100586 C46.83797905 48.0052609 39.15545983 47.44885943 30.9375 47.25 C29.48505077 47.2298969 28.03257456 47.21165288 26.58007812 47.1953125 C23.05281666 47.15163506 19.52658501 47.08282107 16 47 C16 50.63 16 54.26 16 58 C15.01 57.67 14.02 57.34 13 57 C13 39.51 13 22.02 13 4 C8.71 4 4.42 4 0 4 C0.66 3.34 1.32 2.68 2 2 C1.34 1.34 0.68 0.68 0 0 Z M16 4 C16 16.87 16 29.74 16 43 C23.425 43.12375 23.425 43.12375 31 43.25 C32.54558594 43.28641602 34.09117187 43.32283203 35.68359375 43.36035156 C43.67655712 43.42481094 50.3773246 43.45302217 56.50341797 37.55175781 C61.58670027 31.80071788 62.46376986 27.4277272 62.30859375 19.90625 C61.62643468 13.48186585 57.27319552 10.09844431 52.5859375 6.19921875 C49.06793091 3.53905121 45.82244232 3.87148244 41.5859375 3.90234375 C40.93923096 3.90335083 40.29252441 3.90435791 39.6262207 3.90539551 C37.20912911 3.91062976 34.79206279 3.92459102 32.375 3.9375 C26.97125 3.958125 21.5675 3.97875 16 4 Z " fill="#1C1C1C" transform="translate(167,185)"/>
<path d="M0 0 C3.0525 -0.061875 6.105 -0.12375 9.25 -0.1875 C10.68327637 -0.22846802 10.68327637 -0.22846802 12.14550781 -0.27026367 C18.33565356 -0.33116968 18.33565356 -0.33116968 21.5859375 1.2890625 C23 3 23 3 23.375 6.5625 C23 10 23 10 21 12 C21.495 12.37125 21.99 12.7425 22.5 13.125 C24 15 24 15 24.5 17.9375 C24 21 24 21 22.08203125 23.17578125 C17.73689266 25.74761866 14.125891 25.44001896 9.1875 25.25 C6.155625 25.1675 3.12375 25.085 0 25 C0 16.75 0 8.5 0 0 Z " fill="#090606" transform="translate(154,256)"/>
<path d="M0 0 C1.32 0 2.64 0 4 0 C4 45.87 4 91.74 4 139 C2.68 139 1.36 139 0 139 C0 93.13 0 47.26 0 0 Z " fill="#181818" transform="translate(314,109)"/>
<path d="M0 0 C0.99 0 1.98 0 3 0 C3 45.54 3 91.08 3 138 C2.01 138 1.02 138 0 138 C0 118.2 0 98.4 0 78 C-1.32 77.67 -2.64 77.34 -4 77 C-2.02 76.01 -2.02 76.01 0 75 C0 70.71 0 66.42 0 62 C-1.4837915 62.02356567 -1.4837915 62.02356567 -2.99755859 62.04760742 C-6.66137577 62.1018346 -10.32515737 62.13632336 -13.98925781 62.16479492 C-15.57623251 62.17989814 -17.16316537 62.20038223 -18.75 62.22631836 C-21.02875073 62.26263595 -23.30695058 62.27971023 -25.5859375 62.29296875 C-26.29744965 62.30845261 -27.00896179 62.32393646 -27.74203491 62.33988953 C-29.74365234 62.34057617 -29.74365234 62.34057617 -33 62 C-33.66 61.01 -34.32 60.02 -35 59 C-23.45 59 -11.9 59 0 59 C0 39.53 0 20.06 0 0 Z " fill="#030303" transform="translate(298,110)"/>
<path d="M0 0 C4.29 0 8.58 0 13 0 C13 12.87 13 25.74 13 39 C8.71 39 4.42 39 0 39 C0 26.13 0 13.26 0 0 Z " fill="#F1F1F1" transform="translate(167,130)"/>
<path d="M0 0 C6.27 0 12.54 0 19 0 C19.33 0.66 19.66 1.32 20 2 C18.02 2 16.04 2 14 2 C14 15.2 14 28.4 14 42 C18.99125 41.855625 23.9825 41.71125 29.125 41.5625 C31.47069092 41.49784546 31.47069092 41.49784546 33.86376953 41.43188477 C35.7294458 41.3747229 35.7294458 41.3747229 37.6328125 41.31640625 C39.53377686 41.26141968 39.53377686 41.26141968 41.47314453 41.20532227 C44.72019016 41.01628964 47.80698948 40.6037927 51 40 C50.67 40.99 50.34 41.98 50 43 C51.65 43.33 53.3 43.66 55 44 C54.67 44.99 54.34 45.98 54 47 C53.2476709 46.84152588 52.4953418 46.68305176 51.72021484 46.51977539 C46.63761712 45.80965264 41.60311691 45.76421462 36.4765625 45.68359375 C35.37524994 45.66281265 34.27393738 45.64203156 33.13925171 45.62062073 C29.63456227 45.5554381 26.12980034 45.49638603 22.625 45.4375 C20.2434822 45.39428502 17.86197163 45.35066978 15.48046875 45.30664062 C9.65371939 45.19978884 3.8268974 45.09843374 -2 45 C-2 49.62 -2 54.24 -2 59 C-1.01 59.33 -0.02 59.66 1 60 C-0.485 60.495 -0.485 60.495 -2 61 C-3.20882096 63.00016466 -3.20882096 63.00016466 -4 65 C-4.33 65 -4.66 65 -5 65 C-5.07408587 60.90666095 -5.1285704 56.81358067 -5.16479492 52.71972656 C-5.17989358 51.32675378 -5.20037444 49.93382862 -5.22631836 48.54101562 C-5.26265122 46.54057115 -5.27811192 44.53978173 -5.29296875 42.5390625 C-5.3086792 41.33459473 -5.32438965 40.13012695 -5.34057617 38.88916016 C-5.22818604 37.9357373 -5.1157959 36.98231445 -5 36 C-4.01 35.34 -3.02 34.68 -2 34 C-2 36.64 -2 39.28 -2 42 C2.29 42 6.58 42 11 42 C10.67 29.13 10.34 16.26 10 3 C6.37 2.67 2.74 2.34 -1 2 C-0.67 1.34 -0.34 0.68 0 0 Z " fill="#020202" transform="translate(169,127)"/>
<path d="M0 0 C2.5575 -0.061875 5.115 -0.12375 7.75 -0.1875 C8.94834473 -0.22846802 8.94834473 -0.22846802 10.17089844 -0.27026367 C13.36437172 -0.30766833 15.64927922 -0.18580505 18.4921875 1.3203125 C20 3 20 3 20.375 6.0625 C20 9 20 9 18 11 C18.99 11.66 19.98 12.32 21 13 C21.4375 15.9375 21.4375 15.9375 21 19 C19.21029924 21.0305312 17.78070515 21.90430834 15.07788086 22.2355957 C12.79241158 22.29554495 10.53543788 22.26083997 8.25 22.1875 C5.5275 22.125625 2.805 22.06375 0 22 C0 14.74 0 7.48 0 0 Z " fill="#0B0707" transform="translate(257,298)"/>
<path d="M0 0 C2.31 0 4.62 0 7 0 C7 2.64 7 5.28 7 8 C9.31 8 11.62 8 14 8 C14 5.36 14 2.72 14 0 C16.31 0 18.62 0 21 0 C21 7.26 21 14.52 21 22 C18.69 22 16.38 22 14 22 C14 19.36 14 16.72 14 14 C11.69 14 9.38 14 7 14 C7 16.64 7 19.28 7 22 C4.69 22 2.38 22 0 22 C0 14.74 0 7.48 0 0 Z " fill="#0E0907" transform="translate(205,298)"/>
<path d="M0 0 C3.58552881 1.63687185 4.79315055 2.68972583 7 6 C7.34061873 9.0169088 7.57212107 11.09407815 7 14 C4.82425584 16.69105198 3.08934144 18.45532928 0 20 C-7.08958838 20.5811138 -7.08958838 20.5811138 -10.9375 18.125 C-14.29451206 14.6662603 -14.47032094 11.94849811 -14.40234375 7.265625 C-14 5 -14 5 -11.5 1.9375 C-7.63160005 -0.70544937 -4.57730035 -0.58124449 0 0 Z " fill="#0A090F" transform="translate(206,261)"/>
<path d="M0 0 C7.32816549 -0.10213068 14.65614477 -0.17177002 21.98486328 -0.21972656 C24.47353982 -0.23973667 26.96216998 -0.26695343 29.45068359 -0.30175781 C33.04536444 -0.35074344 36.63941913 -0.37307583 40.234375 -0.390625 C41.88043732 -0.42159271 41.88043732 -0.42159271 43.55975342 -0.45318604 C51.35645781 -0.45540787 57.76152678 1.13526586 65 4 C65.33 2.68 65.66 1.36 66 0 C67.32 0 68.64 0 70 0 C70.061875 1.216875 70.12375 2.43375 70.1875 3.6875 C70.71163126 8.15849852 72.50586395 10.13301658 76 13 C74.68 13.66 73.36 14.32 72 15 C70.9171875 14.1028125 70.9171875 14.1028125 69.8125 13.1875 C60.42763371 5.88815955 50.42066575 4.55859732 38.76953125 4.48828125 C37.65309738 4.47033005 36.53666351 4.45237885 35.38639832 4.43388367 C31.86180263 4.38021229 28.33733894 4.34602396 24.8125 4.3125 C22.40558076 4.27928882 19.99867884 4.24479572 17.59179688 4.20898438 C11.72798313 4.12451114 5.86415134 4.05598086 0 4 C0 2.68 0 1.36 0 0 Z " fill="#2D2D2D" transform="translate(163,109)"/>
<path d="M0 0 C2.91927604 1.3961755 4.72202996 2.72202996 7 5 C7 6.98 7 8.96 7 11 C2.38 11 -2.24 11 -7 11 C-6.67 11.99 -6.34 12.98 -6 14 C-4.35 14 -2.7 14 -1 14 C-0.67 13.34 -0.34 12.68 0 12 C2.31 12 4.62 12 7 12 C6.7395304 15.21245843 6.42509628 16.6147565 4 18.8125 C-0.08306301 20.42871244 -3.66496167 20.73035972 -8 20 C-10.87029869 18.20606332 -12.49131638 17.01736724 -14 14 C-14.47847852 10.9171447 -14.5463489 8.07652779 -14 5 C-9.76130583 -0.19240036 -6.53679869 -0.83006967 0 0 Z " fill="#131215" transform="translate(276,261)"/>
<path d="M0 0 C0.33 0 0.66 0 1 0 C1 17.49 1 34.98 1 53 C6.55254482 54.85084827 12.75327495 54.30640893 18.57568359 54.35009766 C20.17772046 54.36655362 21.77968711 54.39370482 23.38134766 54.43212891 C34.80494614 54.70428839 43.233156 53.83880823 52.82421875 46.98046875 C53.43910156 46.38878906 54.05398437 45.79710937 54.6875 45.1875 C55.33074219 44.58292969 55.97398437 43.97835937 56.63671875 43.35546875 C57.08660156 42.90816406 57.53648437 42.46085937 58 42 C58 45.38023517 57.12544378 47.83468937 56 51 C55.34 51 54.68 51 54 51 C54 53.64 54 56.28 54 59 C52.68 59 51.36 59 50 59 C50 57.68 50 56.36 50 55 C48.11197917 55.74869792 46.22395833 56.49739583 44.3359375 57.24609375 C38.80388853 59.03152093 33.30257986 59.13714944 27.5390625 59.09765625 C26.83740967 59.09664917 26.13575684 59.09564209 25.4128418 59.09460449 C22.81687767 59.089412 20.22093702 59.07545103 17.625 59.0625 C11.80875 59.041875 5.9925 59.02125 0 59 C0 39.53 0 20.06 0 0 Z " fill="#333333" transform="translate(179,189)"/>
<path d="M0 0 C2.31 0 4.62 0 7 0 C7.33 4.95 7.66 9.9 8 15 C9.65 15.33 11.3 15.66 13 16 C14.99616554 14.00383446 14.40983427 10.18298037 14.5625 7.4375 C14.60568359 6.72658203 14.64886719 6.01566406 14.69335938 5.28320312 C14.79971777 3.52238088 14.90038846 1.7612168 15 0 C17.31 0 19.62 0 22 0 C22.08139142 2.39652528 22.14067009 4.79025436 22.1875 7.1875 C22.21263672 7.86103516 22.23777344 8.53457031 22.26367188 9.22851562 C22.329257 13.71016614 21.72064426 16.42582029 19 20 C15.96754689 22.35857464 12.73934186 22.35933916 8.96484375 22.25390625 C6.04372208 21.87642532 4.25685476 20.85858628 2 19 C-0.53451995 15.33902674 -0.23009967 11.52674825 -0.125 7.25 C-0.11597656 6.55261719 -0.10695312 5.85523438 -0.09765625 5.13671875 C-0.07419888 3.42433042 -0.03833104 1.71211996 0 0 Z " fill="#0C0D11" transform="translate(231,298)"/>
<path d="M0 0 C0.66 0.556875 1.32 1.11375 2 1.6875 C2 2.6775 2 3.6675 2 4.6875 C-1.63 4.3575 -5.26 4.0275 -9 3.6875 C-8.67 4.3475 -8.34 5.0075 -8 5.6875 C-5.94623994 6.30115708 -5.94623994 6.30115708 -3.5625 6.6875 C0.78082192 7.46832192 0.78082192 7.46832192 3 9.6875 C3.37130746 12.58369822 3.46583421 14.06638771 1.6875 16.4375 C-2.05967289 19.21318362 -6.51877687 19.33265664 -11 18.6875 C-14 16.875 -14 16.875 -16 14.6875 C-16 13.6975 -16 12.7075 -16 11.6875 C-11.53160785 11.47471942 -8.17737474 12.09611915 -4 13.6875 C-4.81272599 11.50378991 -4.81272599 11.50378991 -6.99609375 10.90625 C-7.80175781 10.6690625 -8.60742188 10.431875 -9.4375 10.1875 C-13.78359909 8.90390091 -13.78359909 8.90390091 -16 6.6875 C-15.875 3.6875 -15.875 3.6875 -15 0.6875 C-10.9270519 -2.89669433 -4.6100177 -2.01688275 0 0 Z " fill="#0A080A" transform="translate(326,262.3125)"/>
<path d="M0 0 C4.62 0 9.24 0 14 0 C14.33 0.66 14.66 1.32 15 2 C13.68 2 12.36 2 11 2 C11 15.2 11 28.4 11 42 C15.62 42 20.24 42 25 42 C25.66 42.99 26.32 43.98 27 45 C21.72 45 16.44 45 11 45 C11 48.96 11 52.92 11 57 C10.01 56.67 9.02 56.34 8 56 C7.67 38.51 7.34 21.02 7 3 C4.36 2.67 1.72 2.34 -1 2 C-0.67 1.34 -0.34 0.68 0 0 Z " fill="#010101" transform="translate(172,186)"/>
<path d="M0 0 C2.31 0 4.62 0 7 0 C7 8.91 7 17.82 7 27 C4.69 27 2.38 27 0 27 C0 18.09 0 9.18 0 0 Z " fill="#1C1200" transform="translate(181,254)"/>
<path d="M0 0 C4.33333333 0 8.66666667 0 13 0 C13 2.31 13 4.62 13 7 C11.35 7.33 9.7 7.66 8 8 C7.67 11.96 7.34 15.92 7 20 C4.69 20 2.38 20 0 20 C0 13.4 0 6.8 0 0 Z " fill="#03090E" transform="translate(286,261)"/>
<path d="M0 0 C4.49980879 3.4765646 8.27172166 6.40851126 10 12 C10.80911703 19.73718155 10.75377631 26.58544928 6 33 C4.37163262 34.7041054 2.71230248 36.38025441 1 38 C0.67 38.99 0.34 39.98 0 41 C-1.98 41 -3.96 41 -6 41 C-5.34 40.01 -4.68 39.02 -4 38 C-4.33 37.34 -4.66 36.68 -5 36 C-3.63875 35.2265625 -3.63875 35.2265625 -2.25 34.4375 C1.35703755 31.9672776 3.66051261 29.18309191 5 25 C6.07014678 17.72900271 5.50415687 12.61599617 1.11328125 6.69140625 C-0.3803076 4.42219934 -0.41368875 2.64760802 0 0 Z " fill="#181818" transform="translate(223,130)"/>
<path d="M0 0 C6.60189418 -0.07612856 13.20367494 -0.12863283 19.8059082 -0.16479492 C22.05139394 -0.17987182 24.29685029 -0.20033653 26.54223633 -0.22631836 C29.77172099 -0.26274918 33.00081594 -0.27973755 36.23046875 -0.29296875 C37.23272995 -0.30845261 38.23499115 -0.32393646 39.2676239 -0.33988953 C48.19989434 -0.34204134 48.19989434 -0.34204134 52 3 C52 3.66 52 4.32 52 5 C40.12 4.67 28.24 4.34 16 4 C16.99 3.34 17.98 2.68 19 2 C14.38 2 9.76 2 5 2 C7.31 2.33 9.62 2.66 12 3 C12 3.33 12 3.66 12 4 C8.04 4 4.08 4 0 4 C0.66 3.34 1.32 2.68 2 2 C1.34 1.34 0.68 0.68 0 0 Z " fill="#191919" transform="translate(167,185)"/>
<path d="M0 0 C0.33 0 0.66 0 1 0 C1 18.48 1 36.96 1 56 C0.01 56 -0.98 56 -2 56 C-2.05057791 48.34622001 -2.08568184 40.69248287 -2.10986328 33.03857422 C-2.11994064 30.43308909 -2.1336027 27.82761531 -2.15087891 25.22216797 C-2.17505102 21.48402101 -2.1864656 17.74602315 -2.1953125 14.0078125 C-2.20563507 12.83695099 -2.21595764 11.66608948 -2.22659302 10.45974731 C-2.22674408 9.37877777 -2.22689514 8.29780823 -2.22705078 7.18408203 C-2.231492 6.22921906 -2.23593323 5.27435608 -2.24050903 4.29055786 C-2 2 -2 2 0 0 Z " fill="#010101" transform="translate(166,192)"/>
<path d="M0 0 C17.16 0 34.32 0 52 0 C51.34 0.99 50.68 1.98 50 3 C47.86129761 3.36076355 47.86129761 3.36076355 45.18310547 3.34057617 C44.18221893 3.34034958 43.1813324 3.34012299 42.15011597 3.33988953 C41.06674957 3.32440567 39.98338318 3.30892181 38.8671875 3.29296875 C37.20672897 3.28660149 37.20672897 3.28660149 35.51272583 3.28010559 C31.9665729 3.26327214 28.42098203 3.2256108 24.875 3.1875 C22.47526861 3.17245922 20.07552833 3.15876977 17.67578125 3.14648438 C11.78366141 3.11335338 5.89187085 3.06310777 0 3 C0 2.01 0 1.02 0 0 Z " fill="#020202" transform="translate(163,110)"/>
<path d="M0 0 C6.44116617 -0.07622102 12.8822155 -0.12867158 19.32373047 -0.16479492 C21.51387885 -0.17985806 23.70399719 -0.20031259 25.89404297 -0.22631836 C29.04662503 -0.26280989 32.19880737 -0.27975139 35.3515625 -0.29296875 C36.32678864 -0.30845261 37.30201477 -0.32393646 38.30679321 -0.33988953 C43.6206725 -0.3411976 47.43475341 -0.05255393 52 3 C53.375 5.1875 53.375 5.1875 54 7 C53.34 7.33 52.68 7.66 52 8 C50.04125977 7.24682617 50.04125977 7.24682617 47.62890625 6.10546875 C41.70357802 3.62725538 36.29777485 3.3734611 29.9375 3.3125 C27.88403545 3.27064433 25.83063842 3.22527435 23.77734375 3.17578125 C22.88265381 3.16458252 21.98796387 3.15338379 21.06616211 3.1418457 C19 3 19 3 18 2 C16.65984779 1.84417697 15.31241097 1.74955858 13.96484375 1.68359375 C13.15595703 1.64169922 12.34707031 1.59980469 11.51367188 1.55664062 C10.66353516 1.51732422 9.81339844 1.47800781 8.9375 1.4375 C8.08349609 1.39431641 7.22949219 1.35113281 6.34960938 1.30664062 C4.23327963 1.20023298 2.11666187 1.09958269 0 1 C0 0.67 0 0.34 0 0 Z " fill="#090909" transform="translate(170,126)"/>
<path d="M0 0 C0.5165918 0.32597168 1.03318359 0.65194336 1.56542969 0.98779297 C4.80110418 2.33307039 7.45291836 2.22497527 10.953125 2.1953125 C11.94345734 2.19106766 11.94345734 2.19106766 12.95379639 2.18673706 C15.05271897 2.17558415 17.15120742 2.15048946 19.25 2.125 C20.67707715 2.11496384 22.10416102 2.1058391 23.53125 2.09765625 C27.02097328 2.07566111 30.51044423 2.04116536 34 2 C34.495 3.485 34.495 3.485 35 5 C23.45 5 11.9 5 0 5 C0 3.35 0 1.7 0 0 Z " fill="#060606" transform="translate(180,243)"/>
<path d="M0 0 C3.60236433 1.33802104 6.7314358 2.98857588 10 5 C11.32608822 5.68096422 12.65686601 6.35330586 14 7 C13.67 9.31 13.34 11.62 13 14 C12.67 13.34 12.34 12.68 12 12 C11.34 12 10.68 12 10 12 C9.484375 11.4225 8.96875 10.845 8.4375 10.25 C5.06055932 7.13282398 1.22798928 5.69842305 -3 4 C-2.01 2.68 -1.02 1.36 0 0 Z " fill="#3F3F3F" transform="translate(224,171)"/>
<path d="M0 0 C1.485 0.99 1.485 0.99 3 2 C3.38818359 4.21484375 3.38818359 4.21484375 3.3984375 6.9375 C3.40230469 7.91460937 3.40617188 8.89171875 3.41015625 9.8984375 C3.39855469 10.92195312 3.38695312 11.94546875 3.375 13 C3.38660156 14.02351562 3.39820313 15.04703125 3.41015625 16.1015625 C3.40628906 17.07867187 3.40242187 18.05578125 3.3984375 19.0625 C3.39505371 19.96097656 3.39166992 20.85945313 3.38818359 21.78515625 C3.26008301 22.51605469 3.13198242 23.24695313 3 24 C2.01 24.66 1.02 25.32 0 26 C0 17.42 0 8.84 0 0 Z " fill="#000000" transform="translate(164,135)"/>
<path d="M0 0 C5.32721731 1.49827987 9.31192616 4.99698951 13 9 C14.5 12.4375 14.5 12.4375 15 15 C10.6913282 14.51796271 9.01157031 13.41662558 6.3125 10.0625 C5.73113281 9.35222656 5.14976562 8.64195312 4.55078125 7.91015625 C4.03902344 7.27980469 3.52726563 6.64945313 3 6 C2.34 5.34 1.68 4.68 1 4 C0.375 1.875 0.375 1.875 0 0 Z " fill="#272727" transform="translate(217,186)"/>
<path d="M0 0 C15.18 0 30.36 0 46 0 C46 0.33 46 0.66 46 1 C44.85660156 1.06058594 43.71320313 1.12117188 42.53515625 1.18359375 C41.04425695 1.26798428 39.55337225 1.35263302 38.0625 1.4375 C36.93038086 1.49647461 36.93038086 1.49647461 35.77539062 1.55664062 C32.08055813 1.44038024 32.08055813 1.44038024 29 3 C27.33570949 3.09823937 25.66718069 3.12973631 24 3.125 C22.63875 3.12886719 22.63875 3.12886719 21.25 3.1328125 C19 3 19 3 18 2 C16.65984779 1.84417697 15.31241097 1.74955858 13.96484375 1.68359375 C13.15595703 1.64169922 12.34707031 1.59980469 11.51367188 1.55664062 C10.66353516 1.51732422 9.81339844 1.47800781 8.9375 1.4375 C8.08349609 1.39431641 7.22949219 1.35113281 6.34960938 1.30664062 C4.23327963 1.20023298 2.11666187 1.09958269 0 1 C0 0.67 0 0.34 0 0 Z " fill="#111111" transform="translate(170,126)"/>
<path d="M0 0 C2.5 0.125 2.5 0.125 3.5 1.125 C3.6328125 2.9375 3.6328125 2.9375 3.625 5.125 C3.62757813 5.846875 3.63015625 6.56875 3.6328125 7.3125 C3.5 9.125 3.5 9.125 2.5 10.125 C0 10.25 0 10.25 -2.5 10.125 C-3.5 9.125 -3.5 9.125 -3.6328125 7.3125 C-3.63023437 6.590625 -3.62765625 5.86875 -3.625 5.125 C-3.62757813 4.403125 -3.63015625 3.68125 -3.6328125 2.9375 C-3.42186711 0.05871588 -2.89175802 0.1445879 0 0 Z " fill="#F0F2EA" transform="translate(202.5,265.875)"/>
<path d="M0 0 C0.33 0.66 0.66 1.32 1 2 C-6.22535211 13.23943662 -6.22535211 13.23943662 -10.1875 14.9375 C-12 15 -12 15 -14 14 C-13.34 13.34 -12.68 12.68 -12 12 C-12.33 11.34 -12.66 10.68 -13 10 C-11.63875 9.1646875 -11.63875 9.1646875 -10.25 8.3125 C-7.14929372 6.10622823 -5.31084508 3.97108653 -3 1 C-2.34 1 -1.68 1 -1 1 C-0.67 0.67 -0.34 0.34 0 0 Z " fill="#1D1D1D" transform="translate(231,156)"/>
<path d="M0 0 C1.98 0 3.96 0 6 0 C6.28999491 4.92991345 6.19703098 8.09251769 3 12 C2.01 12 1.02 12 0 12 C0.66 10.02 1.32 8.04 2 6 C1.34 6 0.68 6 0 6 C0 4.02 0 2.04 0 0 Z " fill="#0B0709" transform="translate(301,256)"/>
<path d="M0 0 C0.66 0 1.32 0 2 0 C2.29296875 6.0546875 2.29296875 6.0546875 2 8 C1.01 8.66 0.02 9.32 -1 10 C-0.67 8.35 -0.34 6.7 0 5 C-2.31 5 -4.62 5 -7 5 C-7.33 5.99 -7.66 6.98 -8 8 C-9.65 8 -11.3 8 -13 8 C-13.33 6.68 -13.66 5.36 -14 4 C-9.38 4 -4.76 4 0 4 C0 2.68 0 1.36 0 0 Z " fill="#EBF7FA" transform="translate(283,268)"/>
<path d="M0 0 C0.66 0.33 1.32 0.66 2 1 C2.10251672 6.12583611 2.03590199 10.94997778 1 16 C-1.32042696 14.19386292 -1.9533659 13.33747041 -2.36328125 10.37109375 C-2.34652344 9.40300781 -2.32976562 8.43492187 -2.3125 7.4375 C-2.30863281 6.46683594 -2.30476562 5.49617187 -2.30078125 4.49609375 C-2 2 -2 2 0 0 Z " fill="#0E0E0E" transform="translate(248,202)"/>
<path d="M0 0 C2.31 0 4.62 0 7 0 C6.67 0.66 6.34 1.32 6 2 C9.3 2.33 12.6 2.66 16 3 C16 3.33 16 3.66 16 4 C12.04 4 8.08 4 4 4 C4 5.65 4 7.3 4 9 C1.47740939 7.02579865 1.0070192 6.03254358 0.3125 2.8125 C0.209375 1.884375 0.10625 0.95625 0 0 Z " fill="#282828" transform="translate(163,126)"/>
<path d="M0 0 C0.33 0 0.66 0 1 0 C1 4.95 1 9.9 1 15 C0.01 15 -0.98 15 -2 15 C-2.05386629 12.87527424 -2.09273071 10.75016348 -2.125 8.625 C-2.14820313 7.44164062 -2.17140625 6.25828125 -2.1953125 5.0390625 C-2 2 -2 2 0 0 Z " fill="#020202" transform="translate(248,233)"/>
<path d="M0 0 C1.27617187 0.02320313 2.55234375 0.04640625 3.8671875 0.0703125 C5.78917969 0.09738281 5.78917969 0.09738281 7.75 0.125 C9.23113281 0.15980469 9.23113281 0.15980469 10.7421875 0.1953125 C11.4021875 1.5153125 12.0621875 2.8353125 12.7421875 4.1953125 C6.8021875 3.5353125 0.8621875 2.8753125 -5.2578125 2.1953125 C-3.2578125 0.1953125 -3.2578125 0.1953125 0 0 Z " fill="#030303" transform="translate(206.2578125,185.8046875)"/>
<path d="M0 0 C0.99 0 1.98 0 3 0 C3 4.95 3 9.9 3 15 C0 12 0 12 -0.29296875 9.08203125 C-0.25816406 8.00308594 -0.22335938 6.92414063 -0.1875 5.8125 C-0.16042969 4.72582031 -0.13335937 3.63914062 -0.10546875 2.51953125 C-0.07066406 1.68808594 -0.03585938 0.85664062 0 0 Z " fill="#010101" transform="translate(246,110)"/>
<path d="M0 0 C2.31 0 4.62 0 7 0 C7.5625 1.9375 7.5625 1.9375 8 4 C7 5 7 5 3.4375 5.0625 C2.303125 5.041875 1.16875 5.02125 0 5 C0 3.35 0 1.7 0 0 Z " fill="#EFF0EA" transform="translate(162,261)"/>
<path d="M0 0 C2.64 0 5.28 0 8 0 C8 1.32 8 2.64 8 4 C5.36 4 2.72 4 0 4 C0 2.68 0 1.36 0 0 Z " fill="#F1F5F0" transform="translate(162,271)"/>
<path d="M0 0 C2.31 0 4.62 0 7 0 C7 1.32 7 2.64 7 4 C4.69 4 2.38 4 0 4 C0 2.68 0 1.36 0 0 Z " fill="#EFF4EF" transform="translate(264,311)"/>
<path d="M0 0 C2.97 0 5.94 0 9 0 C9 0.99 9 1.98 9 3 C6.03 3 3.06 3 0 3 C0 2.01 0 1.02 0 0 Z " fill="#F1F2EE" transform="translate(221,281)"/>
<path d="M0 0 C2.97 0 5.94 0 9 0 C9 0.99 9 1.98 9 3 C6.03 3 3.06 3 0 3 C0 2.01 0 1.02 0 0 Z " fill="#F4F7F5" transform="translate(244,281)"/>
<path d="M0 0 C1.98 0 3.96 0 6 0 C6 1.32 6 2.64 6 4 C4.02 4 2.04 4 0 4 C0 2.68 0 1.36 0 0 Z " fill="#EEF2EC" transform="translate(264,303)"/>
<path d="M0 0 C1.485 0.99 1.485 0.99 3 2 C3.375 5 3.375 5 3 8 C2.01 8.66 1.02 9.32 0 10 C0 6.7 0 3.4 0 0 Z " fill="#0A0A0A" transform="translate(298,174)"/>
<path d="M0 0 C0.33 0.99 0.66 1.98 1 3 C-2.63 3.33 -6.26 3.66 -10 4 C-10.33 3.01 -10.66 2.02 -11 1 C-7.37 1.33 -3.74 1.66 0 2 C0 1.34 0 0.68 0 0 Z " fill="#B6C0C8" transform="translate(328,265)"/>
<path d="M0 0 C0.33 0 0.66 0 1 0 C1 2.97 1 5.94 1 9 C0.01 8.67 -0.98 8.34 -2 8 C-2.125 5.125 -2.125 5.125 -2 2 C-1.34 1.34 -0.68 0.68 0 0 Z " fill="#090909" transform="translate(182,205)"/>
<path d="M0 0 C0.33 0 0.66 0 1 0 C1 3.3 1 6.6 1 10 C0.01 10 -0.98 10 -2 10 C-2.22036864 6.14354879 -1.60355101 3.50776784 0 0 Z " fill="#0A0A0A" transform="translate(300,238)"/>
<path d="M0 0 C1.485 0.99 1.485 0.99 3 2 C3.375 4.5 3.375 4.5 3 7 C2.01 7.66 1.02 8.32 0 9 C0 6.03 0 3.06 0 0 Z " fill="#0A0A0A" transform="translate(298,205)"/>
<path d="M0 0 C-0.33 0.99 -0.66 1.98 -1 3 C-3.9375 2.625 -3.9375 2.625 -7 2 C-7.33 1.34 -7.66 0.68 -8 0 C-4.71023192 -1.09658936 -3.28696233 -0.79953138 0 0 Z " fill="#0A0A0A" transform="translate(224,171)"/>
<path d="M0 0 C1.65 0 3.3 0 5 0 C5 1.32 5 2.64 5 4 C3.35 4 1.7 4 0 4 C0 2.68 0 1.36 0 0 Z " fill="#E4EAE7" transform="translate(246,265)"/>
<path d="M0 0 C1.65 0.33 3.3 0.66 5 1 C4.67 1.99 4.34 2.98 4 4 C2.35 3.67 0.7 3.34 -1 3 C-0.67 2.01 -0.34 1.02 0 0 Z " fill="#E1ECEC" transform="translate(223,265)"/>
<path d="M0 0 C1.76462683 3.08809695 2 4.23312136 2 8 C1.01 8.495 1.01 8.495 0 9 C-0.84454356 5.62182575 -1.10844919 3.32534757 0 0 Z " fill="#F0D4B0" transform="translate(215,265)"/>
<path d="M0 0 C0.33 0.66 0.66 1.32 1 2 C0.01 3.32 -0.98 4.64 -2 6 C-2.99 5.67 -3.98 5.34 -5 5 C-4.34 3.68 -3.68 2.36 -3 1 C-2.34 1 -1.68 1 -1 1 C-0.67 0.67 -0.34 0.34 0 0 Z " fill="#242424" transform="translate(231,156)"/>
</svg>
